<svg width="222" height="93" viewBox="0 0 222 93" fill="none" xmlns="http://www.w3.org/2000/svg">
<path d="M198.248 67.9899L204.979 18.1755H200.604L193.872 63.9509H189.165L188.542 67.9899H198.248Z" fill="#CAAA00"/>
<path d="M63.2777 67.9899H188.542L189.165 63.9509H34.4533L35.5258 67.9899H63.2777Z" fill="#CAAA00"/>
<path d="M43.8435 72.5896L75.3948 86.8386L66.6948 73.3053L43.8435 72.5896Z" fill="#DEBC08"/>
<path d="M43.8435 72.5896L66.6948 73.3053L63.2777 67.9899H35.5258L35.7802 68.9481L43.8435 72.5896Z" fill="#DEBC08"/>
<path d="M196.224 18.1755H22.2982L34.4533 63.9509H189.165L196.224 18.1755Z" fill="#FFD600"/>
<path d="M193.872 63.9509L200.604 18.1755H196.224L189.165 63.9509H193.872Z" fill="#FFD600"/>
<path d="M200.75 69.7568L217.712 75.1512L202.423 87.4767L200.75 69.7568Z" fill="black"/>
<path d="M201.351 67.3486L204.483 58.7443L210.44 66.2432L201.351 67.3486Z" fill="black"/>
<path d="M12.6924 1.00437L20.4382 17.8997L1.93352 16.1601L12.6924 1.00437Z" fill="black"/>
<path d="M23.5471 15.167L23.4955 5.48422L31.9561 10.3662L23.5471 15.167Z" fill="black"/>
<path d="M8.36852 22.4727L17.495 20.8242L14.5144 29.4181L8.36852 22.4727Z" fill="black"/>
<path d="M187.704 73.6322L195.915 70.5117L194.206 79.5384L187.704 73.6322Z" fill="black"/>
<mask id="path-8-outside-1_4_16" maskUnits="userSpaceOnUse" x="32.9852" y="27.1755" width="162" height="32" fill="black">
<rect fill="white" x="32.9852" y="27.1755" width="162" height="32"/>
<path d="M52.1792 58.1838L48.7249 54.0452C47.769 54.2841 46.7914 54.4036 45.792 54.4036C43.663 54.4036 41.7077 53.9039 39.9263 52.9046C38.1448 51.9053 36.7327 50.5257 35.6899 48.766C34.6471 46.9846 34.1257 44.975 34.1257 42.7373C34.1257 40.5214 34.6471 38.5335 35.6899 36.7738C36.7327 34.9924 38.1448 33.602 39.9263 32.6026C41.7077 31.6033 43.663 31.1036 45.792 31.1036C47.9428 31.1036 49.898 31.6033 51.6578 32.6026C53.4392 33.602 54.8405 34.9924 55.8615 36.7738C56.9043 38.5335 57.4257 40.5214 57.4257 42.7373C57.4257 44.7577 56.9912 46.6044 56.1222 48.2772C55.275 49.9283 54.1127 51.2752 52.6354 52.318L57.8494 58.1838H52.1792ZM38.8183 42.7373C38.8183 44.2581 39.1116 45.5942 39.6982 46.7456C40.2847 47.897 41.0994 48.7877 42.1422 49.4177C43.2068 50.026 44.4233 50.3302 45.792 50.3302C47.1607 50.3302 48.3664 50.026 49.4092 49.4177C50.452 48.7877 51.2667 47.897 51.8533 46.7456C52.4399 45.5942 52.7331 44.2581 52.7331 42.7373C52.7331 41.2166 52.4399 39.8914 51.8533 38.7617C51.2667 37.6102 50.452 36.7304 49.4092 36.1221C48.3664 35.5138 47.1607 35.2096 45.792 35.2096C44.4233 35.2096 43.2068 35.5138 42.1422 36.1221C41.0994 36.7304 40.2847 37.6102 39.6982 38.7617C39.1116 39.8914 38.8183 41.2166 38.8183 42.7373ZM77.9268 36.1221V54.1755H73.3319V51.8944C72.7454 52.6765 71.9741 53.2956 71.0182 53.7519C70.0841 54.1864 69.063 54.4036 67.955 54.4036C66.5429 54.4036 65.2937 54.1103 64.2075 53.5238C63.1212 52.9155 62.2631 52.0356 61.6331 50.8842C61.0248 49.711 60.7206 48.3206 60.7206 46.713V36.1221H65.2829V46.0612C65.2829 47.4951 65.6413 48.6031 66.3582 49.3852C67.0752 50.1455 68.0528 50.5257 69.2911 50.5257C70.5512 50.5257 71.5396 50.1455 72.2566 49.3852C72.9735 48.6031 73.3319 47.4951 73.3319 46.0612V36.1221H77.9268ZM84.7419 33.9713C83.938 33.9713 83.2646 33.7215 82.7214 33.2218C82.2 32.7004 81.9394 32.0595 81.9394 31.2991C81.9394 30.5388 82.2 29.9087 82.7214 29.4091C83.2646 28.8877 83.938 28.627 84.7419 28.627C85.5457 28.627 86.2083 28.8877 86.7297 29.4091C87.2728 29.9087 87.5444 30.5388 87.5444 31.2991C87.5444 32.0595 87.2728 32.7004 86.7297 33.2218C86.2083 33.7215 85.5457 33.9713 84.7419 33.9713ZM86.9904 36.1221V54.1755H82.4282V36.1221H86.9904ZM95.6691 50.428H103.718V54.1755H90.4877V50.4931L98.3738 39.8696H90.5203V36.1221H103.62V39.8045L95.6691 50.428ZM130.495 31.4295V35.1119H124.433V54.1755H119.871V35.1119H113.81V31.4295H130.495ZM136.137 33.9713C135.333 33.9713 134.66 33.7215 134.117 33.2218C133.595 32.7004 133.335 32.0595 133.335 31.2991C133.335 30.5388 133.595 29.9087 134.117 29.4091C134.66 28.8877 135.333 28.627 136.137 28.627C136.941 28.627 137.603 28.8877 138.125 29.4091C138.668 29.9087 138.94 30.5388 138.94 31.2991C138.94 32.0595 138.668 32.7004 138.125 33.2218C137.603 33.7215 136.941 33.9713 136.137 33.9713ZM138.386 36.1221V54.1755H133.823V36.1221H138.386ZM165.313 35.8614C167.529 35.8614 169.311 36.5457 170.658 37.9144C172.026 39.2613 172.711 41.1514 172.711 43.5846V54.1755H168.148V44.2038C168.148 42.7916 167.79 41.7163 167.073 40.9776C166.356 40.2172 165.378 39.837 164.14 39.837C162.902 39.837 161.913 40.2172 161.175 40.9776C160.458 41.7163 160.099 42.7916 160.099 44.2038V54.1755H155.537V44.2038C155.537 42.7916 155.179 41.7163 154.462 40.9776C153.745 40.2172 152.767 39.837 151.529 39.837C150.269 39.837 149.269 40.2172 148.531 40.9776C147.814 41.7163 147.455 42.7916 147.455 44.2038V54.1755H142.893V36.1221H147.455V38.3054C148.042 37.5451 148.791 36.9476 149.704 36.5131C150.638 36.0786 151.659 35.8614 152.767 35.8614C154.179 35.8614 155.439 36.1655 156.547 36.7738C157.655 37.3604 158.513 38.2077 159.122 39.3156C159.708 38.2729 160.555 37.4364 161.663 36.8064C162.793 36.1764 164.01 35.8614 165.313 35.8614ZM193.822 44.7577C193.822 45.4095 193.779 45.9961 193.692 46.5175H180.494C180.603 47.821 181.059 48.842 181.863 49.5807C182.667 50.3193 183.655 50.6887 184.828 50.6887C186.523 50.6887 187.729 49.9609 188.445 48.5053H193.366C192.845 50.2433 191.845 51.6771 190.368 52.8068C188.891 53.9148 187.077 54.4688 184.926 54.4688C183.188 54.4688 181.624 54.0886 180.233 53.3282C178.865 52.5461 177.789 51.449 177.007 50.0369C176.247 48.6248 175.867 46.9954 175.867 45.1488C175.867 43.2804 176.247 41.6402 177.007 40.2281C177.768 38.816 178.832 37.7297 180.201 36.9694C181.57 36.209 183.145 35.8288 184.926 35.8288C186.642 35.8288 188.174 36.1981 189.521 36.9368C190.89 37.6754 191.943 38.7291 192.682 40.0977C193.442 41.4447 193.822 42.998 193.822 44.7577ZM189.097 43.4542C189.075 42.2811 188.652 41.3469 187.826 40.6517C187.001 39.9348 185.991 39.5763 184.796 39.5763C183.666 39.5763 182.71 39.9239 181.928 40.6191C181.168 41.2926 180.701 42.2377 180.527 43.4542H189.097Z"/>
</mask>
<path d="M52.1792 58.1838L48.7249 54.0452C47.769 54.2841 46.7914 54.4036 45.792 54.4036C43.663 54.4036 41.7077 53.9039 39.9263 52.9046C38.1448 51.9053 36.7327 50.5257 35.6899 48.766C34.6471 46.9846 34.1257 44.975 34.1257 42.7373C34.1257 40.5214 34.6471 38.5335 35.6899 36.7738C36.7327 34.9924 38.1448 33.602 39.9263 32.6026C41.7077 31.6033 43.663 31.1036 45.792 31.1036C47.9428 31.1036 49.898 31.6033 51.6578 32.6026C53.4392 33.602 54.8405 34.9924 55.8615 36.7738C56.9043 38.5335 57.4257 40.5214 57.4257 42.7373C57.4257 44.7577 56.9912 46.6044 56.1222 48.2772C55.275 49.9283 54.1127 51.2752 52.6354 52.318L57.8494 58.1838H52.1792ZM38.8183 42.7373C38.8183 44.2581 39.1116 45.5942 39.6982 46.7456C40.2847 47.897 41.0994 48.7877 42.1422 49.4177C43.2068 50.026 44.4233 50.3302 45.792 50.3302C47.1607 50.3302 48.3664 50.026 49.4092 49.4177C50.452 48.7877 51.2667 47.897 51.8533 46.7456C52.4399 45.5942 52.7331 44.2581 52.7331 42.7373C52.7331 41.2166 52.4399 39.8914 51.8533 38.7617C51.2667 37.6102 50.452 36.7304 49.4092 36.1221C48.3664 35.5138 47.1607 35.2096 45.792 35.2096C44.4233 35.2096 43.2068 35.5138 42.1422 36.1221C41.0994 36.7304 40.2847 37.6102 39.6982 38.7617C39.1116 39.8914 38.8183 41.2166 38.8183 42.7373ZM77.9268 36.1221V54.1755H73.3319V51.8944C72.7454 52.6765 71.9741 53.2956 71.0182 53.7519C70.0841 54.1864 69.063 54.4036 67.955 54.4036C66.5429 54.4036 65.2937 54.1103 64.2075 53.5238C63.1212 52.9155 62.2631 52.0356 61.6331 50.8842C61.0248 49.711 60.7206 48.3206 60.7206 46.713V36.1221H65.2829V46.0612C65.2829 47.4951 65.6413 48.6031 66.3582 49.3852C67.0752 50.1455 68.0528 50.5257 69.2911 50.5257C70.5512 50.5257 71.5396 50.1455 72.2566 49.3852C72.9735 48.6031 73.3319 47.4951 73.3319 46.0612V36.1221H77.9268ZM84.7419 33.9713C83.938 33.9713 83.2646 33.7215 82.7214 33.2218C82.2 32.7004 81.9394 32.0595 81.9394 31.2991C81.9394 30.5388 82.2 29.9087 82.7214 29.4091C83.2646 28.8877 83.938 28.627 84.7419 28.627C85.5457 28.627 86.2083 28.8877 86.7297 29.4091C87.2728 29.9087 87.5444 30.5388 87.5444 31.2991C87.5444 32.0595 87.2728 32.7004 86.7297 33.2218C86.2083 33.7215 85.5457 33.9713 84.7419 33.9713ZM86.9904 36.1221V54.1755H82.4282V36.1221H86.9904ZM95.6691 50.428H103.718V54.1755H90.4877V50.4931L98.3738 39.8696H90.5203V36.1221H103.62V39.8045L95.6691 50.428ZM130.495 31.4295V35.1119H124.433V54.1755H119.871V35.1119H113.81V31.4295H130.495ZM136.137 33.9713C135.333 33.9713 134.66 33.7215 134.117 33.2218C133.595 32.7004 133.335 32.0595 133.335 31.2991C133.335 30.5388 133.595 29.9087 134.117 29.4091C134.66 28.8877 135.333 28.627 136.137 28.627C136.941 28.627 137.603 28.8877 138.125 29.4091C138.668 29.9087 138.94 30.5388 138.94 31.2991C138.94 32.0595 138.668 32.7004 138.125 33.2218C137.603 33.7215 136.941 33.9713 136.137 33.9713ZM138.386 36.1221V54.1755H133.823V36.1221H138.386ZM165.313 35.8614C167.529 35.8614 169.311 36.5457 170.658 37.9144C172.026 39.2613 172.711 41.1514 172.711 43.5846V54.1755H168.148V44.2038C168.148 42.7916 167.79 41.7163 167.073 40.9776C166.356 40.2172 165.378 39.837 164.14 39.837C162.902 39.837 161.913 40.2172 161.175 40.9776C160.458 41.7163 160.099 42.7916 160.099 44.2038V54.1755H155.537V44.2038C155.537 42.7916 155.179 41.7163 154.462 40.9776C153.745 40.2172 152.767 39.837 151.529 39.837C150.269 39.837 149.269 40.2172 148.531 40.9776C147.814 41.7163 147.455 42.7916 147.455 44.2038V54.1755H142.893V36.1221H147.455V38.3054C148.042 37.5451 148.791 36.9476 149.704 36.5131C150.638 36.0786 151.659 35.8614 152.767 35.8614C154.179 35.8614 155.439 36.1655 156.547 36.7738C157.655 37.3604 158.513 38.2077 159.122 39.3156C159.708 38.2729 160.555 37.4364 161.663 36.8064C162.793 36.1764 164.01 35.8614 165.313 35.8614ZM193.822 44.7577C193.822 45.4095 193.779 45.9961 193.692 46.5175H180.494C180.603 47.821 181.059 48.842 181.863 49.5807C182.667 50.3193 183.655 50.6887 184.828 50.6887C186.523 50.6887 187.729 49.9609 188.445 48.5053H193.366C192.845 50.2433 191.845 51.6771 190.368 52.8068C188.891 53.9148 187.077 54.4688 184.926 54.4688C183.188 54.4688 181.624 54.0886 180.233 53.3282C178.865 52.5461 177.789 51.449 177.007 50.0369C176.247 48.6248 175.867 46.9954 175.867 45.1488C175.867 43.2804 176.247 41.6402 177.007 40.2281C177.768 38.816 178.832 37.7297 180.201 36.9694C181.57 36.209 183.145 35.8288 184.926 35.8288C186.642 35.8288 188.174 36.1981 189.521 36.9368C190.89 37.6754 191.943 38.7291 192.682 40.0977C193.442 41.4447 193.822 42.998 193.822 44.7577ZM189.097 43.4542C189.075 42.2811 188.652 41.3469 187.826 40.6517C187.001 39.9348 185.991 39.5763 184.796 39.5763C183.666 39.5763 182.71 39.9239 181.928 40.6191C181.168 41.2926 180.701 42.2377 180.527 43.4542H189.097Z" fill="black"/>
<path d="M52.1792 58.1838L48.7249 54.0452C47.769 54.2841 46.7914 54.4036 45.792 54.4036C43.663 54.4036 41.7077 53.9039 39.9263 52.9046C38.1448 51.9053 36.7327 50.5257 35.6899 48.766C34.6471 46.9846 34.1257 44.975 34.1257 42.7373C34.1257 40.5214 34.6471 38.5335 35.6899 36.7738C36.7327 34.9924 38.1448 33.602 39.9263 32.6026C41.7077 31.6033 43.663 31.1036 45.792 31.1036C47.9428 31.1036 49.898 31.6033 51.6578 32.6026C53.4392 33.602 54.8405 34.9924 55.8615 36.7738C56.9043 38.5335 57.4257 40.5214 57.4257 42.7373C57.4257 44.7577 56.9912 46.6044 56.1222 48.2772C55.275 49.9283 54.1127 51.2752 52.6354 52.318L57.8494 58.1838H52.1792ZM38.8183 42.7373C38.8183 44.2581 39.1116 45.5942 39.6982 46.7456C40.2847 47.897 41.0994 48.7877 42.1422 49.4177C43.2068 50.026 44.4233 50.3302 45.792 50.3302C47.1607 50.3302 48.3664 50.026 49.4092 49.4177C50.452 48.7877 51.2667 47.897 51.8533 46.7456C52.4399 45.5942 52.7331 44.2581 52.7331 42.7373C52.7331 41.2166 52.4399 39.8914 51.8533 38.7617C51.2667 37.6102 50.452 36.7304 49.4092 36.1221C48.3664 35.5138 47.1607 35.2096 45.792 35.2096C44.4233 35.2096 43.2068 35.5138 42.1422 36.1221C41.0994 36.7304 40.2847 37.6102 39.6982 38.7617C39.1116 39.8914 38.8183 41.2166 38.8183 42.7373ZM77.9268 36.1221V54.1755H73.3319V51.8944C72.7454 52.6765 71.9741 53.2956 71.0182 53.7519C70.0841 54.1864 69.063 54.4036 67.955 54.4036C66.5429 54.4036 65.2937 54.1103 64.2075 53.5238C63.1212 52.9155 62.2631 52.0356 61.6331 50.8842C61.0248 49.711 60.7206 48.3206 60.7206 46.713V36.1221H65.2829V46.0612C65.2829 47.4951 65.6413 48.6031 66.3582 49.3852C67.0752 50.1455 68.0528 50.5257 69.2911 50.5257C70.5512 50.5257 71.5396 50.1455 72.2566 49.3852C72.9735 48.6031 73.3319 47.4951 73.3319 46.0612V36.1221H77.9268ZM84.7419 33.9713C83.938 33.9713 83.2646 33.7215 82.7214 33.2218C82.2 32.7004 81.9394 32.0595 81.9394 31.2991C81.9394 30.5388 82.2 29.9087 82.7214 29.4091C83.2646 28.8877 83.938 28.627 84.7419 28.627C85.5457 28.627 86.2083 28.8877 86.7297 29.4091C87.2728 29.9087 87.5444 30.5388 87.5444 31.2991C87.5444 32.0595 87.2728 32.7004 86.7297 33.2218C86.2083 33.7215 85.5457 33.9713 84.7419 33.9713ZM86.9904 36.1221V54.1755H82.4282V36.1221H86.9904ZM95.6691 50.428H103.718V54.1755H90.4877V50.4931L98.3738 39.8696H90.5203V36.1221H103.62V39.8045L95.6691 50.428ZM130.495 31.4295V35.1119H124.433V54.1755H119.871V35.1119H113.81V31.4295H130.495ZM136.137 33.9713C135.333 33.9713 134.66 33.7215 134.117 33.2218C133.595 32.7004 133.335 32.0595 133.335 31.2991C133.335 30.5388 133.595 29.9087 134.117 29.4091C134.66 28.8877 135.333 28.627 136.137 28.627C136.941 28.627 137.603 28.8877 138.125 29.4091C138.668 29.9087 138.94 30.5388 138.94 31.2991C138.94 32.0595 138.668 32.7004 138.125 33.2218C137.603 33.7215 136.941 33.9713 136.137 33.9713ZM138.386 36.1221V54.1755H133.823V36.1221H138.386ZM165.313 35.8614C167.529 35.8614 169.311 36.5457 170.658 37.9144C172.026 39.2613 172.711 41.1514 172.711 43.5846V54.1755H168.148V44.2038C168.148 42.7916 167.79 41.7163 167.073 40.9776C166.356 40.2172 165.378 39.837 164.14 39.837C162.902 39.837 161.913 40.2172 161.175 40.9776C160.458 41.7163 160.099 42.7916 160.099 44.2038V54.1755H155.537V44.2038C155.537 42.7916 155.179 41.7163 154.462 40.9776C153.745 40.2172 152.767 39.837 151.529 39.837C150.269 39.837 149.269 40.2172 148.531 40.9776C147.814 41.7163 147.455 42.7916 147.455 44.2038V54.1755H142.893V36.1221H147.455V38.3054C148.042 37.5451 148.791 36.9476 149.704 36.5131C150.638 36.0786 151.659 35.8614 152.767 35.8614C154.179 35.8614 155.439 36.1655 156.547 36.7738C157.655 37.3604 158.513 38.2077 159.122 39.3156C159.708 38.2729 160.555 37.4364 161.663 36.8064C162.793 36.1764 164.01 35.8614 165.313 35.8614ZM193.822 44.7577C193.822 45.4095 193.779 45.9961 193.692 46.5175H180.494C180.603 47.821 181.059 48.842 181.863 49.5807C182.667 50.3193 183.655 50.6887 184.828 50.6887C186.523 50.6887 187.729 49.9609 188.445 48.5053H193.366C192.845 50.2433 191.845 51.6771 190.368 52.8068C188.891 53.9148 187.077 54.4688 184.926 54.4688C183.188 54.4688 181.624 54.0886 180.233 53.3282C178.865 52.5461 177.789 51.449 177.007 50.0369C176.247 48.6248 175.867 46.9954 175.867 45.1488C175.867 43.2804 176.247 41.6402 177.007 40.2281C177.768 38.816 178.832 37.7297 180.201 36.9694C181.57 36.209 183.145 35.8288 184.926 35.8288C186.642 35.8288 188.174 36.1981 189.521 36.9368C190.89 37.6754 191.943 38.7291 192.682 40.0977C193.442 41.4447 193.822 42.998 193.822 44.7577ZM189.097 43.4542C189.075 42.2811 188.652 41.3469 187.826 40.6517C187.001 39.9348 185.991 39.5763 184.796 39.5763C183.666 39.5763 182.71 39.9239 181.928 40.6191C181.168 41.2926 180.701 42.2377 180.527 43.4542H189.097Z" fill="#0038FE" fill-opacity="0.22"/>
<path d="M52.1792 58.1838L51.6623 58.6151L51.8642 58.8569H52.1792V58.1838ZM48.7249 54.0452L49.2417 53.6138L48.9712 53.2897L48.5616 53.3921L48.7249 54.0452ZM39.9263 52.9046L40.2556 52.3175L39.9263 52.9046ZM35.6899 48.766L35.109 49.1061L35.1108 49.1092L35.6899 48.766ZM35.6899 36.7738L36.2691 37.117L36.2709 37.1139L35.6899 36.7738ZM39.9263 32.6026L39.5969 32.0155H39.5969L39.9263 32.6026ZM51.6578 32.6026L51.3253 33.188L51.3284 33.1897L51.6578 32.6026ZM55.8615 36.7738L55.2774 37.1086L55.2824 37.117L55.8615 36.7738ZM56.1222 48.2772L55.5249 47.9669L55.5233 47.9698L56.1222 48.2772ZM52.6354 52.318L52.2472 51.7681L51.6319 52.2024L52.1322 52.7653L52.6354 52.318ZM57.8494 58.1838V58.8569H59.3484L58.3525 57.7365L57.8494 58.1838ZM39.6982 46.7456L40.298 46.44L39.6982 46.7456ZM42.1422 49.4177L41.7941 49.9939L41.8011 49.9982L41.8082 50.0022L42.1422 49.4177ZM49.4092 49.4177L49.7485 49.9993L49.7573 49.9939L49.4092 49.4177ZM51.8533 46.7456L52.4531 47.0511L52.4531 47.0511L51.8533 46.7456ZM51.8533 38.7617L51.2534 39.0672L51.2558 39.0719L51.8533 38.7617ZM49.4092 36.1221L49.07 36.7035L49.4092 36.1221ZM42.1422 36.1221L41.8082 35.5376L41.803 35.5406L42.1422 36.1221ZM39.6982 38.7617L40.2956 39.0719L40.298 39.0672L39.6982 38.7617ZM52.696 57.7524L49.2417 53.6138L48.2081 54.4765L51.6623 58.6151L52.696 57.7524ZM48.5616 53.3921C47.6599 53.6175 46.7371 53.7304 45.792 53.7304V55.0768C46.8456 55.0768 47.8781 54.9507 48.8882 54.6982L48.5616 53.3921ZM45.792 53.7304C43.7732 53.7304 41.9321 53.258 40.2556 52.3175L39.5969 53.4917C41.4833 54.5499 43.5527 55.0768 45.792 55.0768V53.7304ZM40.2556 52.3175C38.5776 51.3762 37.2516 50.0808 36.269 48.4228L35.1108 49.1092C36.2139 50.9706 37.7121 52.4343 39.5969 53.4917L40.2556 52.3175ZM36.2709 48.4259C35.2935 46.7562 34.7989 44.8658 34.7989 42.7373H33.4526C33.4526 45.0842 34.0008 47.2129 35.109 49.1061L36.2709 48.4259ZM34.7989 42.7373C34.7989 40.6317 35.2929 38.7642 36.269 37.117L35.1108 36.4306C34.0013 38.3029 33.4526 40.411 33.4526 42.7373H34.7989ZM36.2709 37.1139C37.2539 35.4345 38.5797 34.1299 40.2556 33.1897L39.5969 32.0155C37.71 33.0741 36.2115 34.5502 35.109 36.4338L36.2709 37.1139ZM40.2556 33.1897C41.9321 32.2493 43.7732 31.7768 45.792 31.7768V30.4305C43.5527 30.4305 41.4833 30.9573 39.5969 32.0155L40.2556 33.1897ZM45.792 31.7768C47.8338 31.7768 49.6733 32.2498 51.3253 33.188L51.9902 32.0173C50.1227 30.9568 48.0518 30.4305 45.792 30.4305V31.7768ZM51.3284 33.1897C53.0031 34.1292 54.3166 35.4321 55.2775 37.1086L56.4456 36.4391C55.3643 34.5526 53.8753 33.0748 51.9871 32.0155L51.3284 33.1897ZM55.2824 37.117C56.2585 38.7642 56.7526 40.6317 56.7526 42.7373H58.0989C58.0989 40.411 57.5501 38.3029 56.4407 36.4306L55.2824 37.117ZM56.7526 42.7373C56.7526 44.6577 56.3405 46.3967 55.5249 47.9669L56.7196 48.5875C57.6419 46.812 58.0989 44.8578 58.0989 42.7373H56.7526ZM55.5233 47.9698C54.7243 49.5269 53.6333 50.7896 52.2472 51.7681L53.0236 52.868C54.5921 51.7608 55.8256 50.3297 56.7211 48.5845L55.5233 47.9698ZM52.1322 52.7653L57.3462 58.631L58.3525 57.7365L53.1385 51.8708L52.1322 52.7653ZM57.8494 57.5106H52.1792V58.8569H57.8494V57.5106ZM38.1451 42.7373C38.1451 44.3456 38.4557 45.7897 39.0984 47.0511L40.298 46.44C39.7675 45.3986 39.4915 44.1706 39.4915 42.7373H38.1451ZM39.0984 47.0511C39.7383 48.3074 40.6372 49.2949 41.7941 49.9939L42.4903 48.8416C41.5617 48.2805 40.8312 47.4866 40.298 46.44L39.0984 47.0511ZM41.8082 50.0022C42.9859 50.6752 44.3201 51.0034 45.792 51.0034V49.657C44.5266 49.657 43.4276 49.3769 42.4762 48.8333L41.8082 50.0022ZM45.792 51.0034C47.2636 51.0034 48.5895 50.6753 49.7484 49.9992L49.07 48.8363C48.1434 49.3768 47.0577 49.657 45.792 49.657V51.0034ZM49.7573 49.9939C50.9142 49.2949 51.8131 48.3074 52.4531 47.0511L51.2535 46.44C50.7203 47.4866 49.9898 48.2805 49.0611 48.8416L49.7573 49.9939ZM52.4531 47.0511C53.0957 45.7897 53.4063 44.3456 53.4063 42.7373H52.06C52.06 44.1706 51.784 45.3986 51.2535 46.44L52.4531 47.0511ZM53.4063 42.7373C53.4063 41.1295 53.0959 39.694 52.4507 38.4515L51.2558 39.0719C51.7838 40.0888 52.06 41.3037 52.06 42.7373H53.4063ZM52.4531 38.4561C51.8122 37.1981 50.9107 36.2186 49.7484 35.5406L49.07 36.7035C49.9934 37.2422 50.7212 38.0224 51.2535 39.0672L52.4531 38.4561ZM49.7484 35.5406C48.5895 34.8646 47.2636 34.5365 45.792 34.5365V35.8828C47.0577 35.8828 48.1434 36.163 49.07 36.7035L49.7484 35.5406ZM45.792 34.5365C44.3201 34.5365 42.9859 34.8646 41.8082 35.5376L42.4762 36.7066C43.4276 36.1629 44.5266 35.8828 45.792 35.8828V34.5365ZM41.803 35.5406C40.6408 36.2186 39.7392 37.1981 39.0984 38.4561L40.298 39.0672C40.8303 38.0224 41.5581 37.2422 42.4814 36.7035L41.803 35.5406ZM39.1007 38.4515C38.4556 39.694 38.1451 41.1295 38.1451 42.7373H39.4915C39.4915 41.3037 39.7676 40.0888 40.2956 39.0719L39.1007 38.4515ZM77.9268 36.1221H78.5999V35.4489H77.9268V36.1221ZM77.9268 54.1755V54.8487H78.5999V54.1755H77.9268ZM73.3319 54.1755H72.6588V54.8487H73.3319V54.1755ZM73.3319 51.8944H74.0051V49.8749L72.7934 51.4905L73.3319 51.8944ZM71.0182 53.7519L71.3022 54.3623L71.3082 54.3594L71.0182 53.7519ZM64.2075 53.5238L63.8785 54.1112L63.8876 54.1161L64.2075 53.5238ZM61.6331 50.8842L61.0355 51.194L61.0389 51.2007L61.0425 51.2073L61.6331 50.8842ZM60.7206 36.1221V35.4489H60.0475V36.1221H60.7206ZM65.2829 36.1221H65.956V35.4489H65.2829V36.1221ZM66.3582 49.3852L65.862 49.8401L65.8685 49.847L66.3582 49.3852ZM72.2566 49.3852L72.7464 49.847L72.7528 49.84L72.2566 49.3852ZM73.3319 36.1221V35.4489H72.6588V36.1221H73.3319ZM77.2536 36.1221V54.1755H78.5999V36.1221H77.2536ZM77.9268 53.5023H73.3319V54.8487H77.9268V53.5023ZM74.0051 54.1755V51.8944H72.6588V54.1755H74.0051ZM72.7934 51.4905C72.2774 52.1785 71.5945 52.7309 70.7283 53.1443L71.3082 54.3594C72.3538 53.8604 73.2134 53.1745 73.8705 52.2983L72.7934 51.4905ZM70.7343 53.1415C69.8957 53.5316 68.9724 53.7304 67.955 53.7304V55.0768C69.1535 55.0768 70.2725 54.8412 71.3021 54.3622L70.7343 53.1415ZM67.955 53.7304C66.6383 53.7304 65.502 53.4577 64.5273 52.9314L63.8876 54.1161C65.0855 54.7629 66.4475 55.0768 67.955 55.0768V53.7304ZM64.5364 52.9364C63.5665 52.3933 62.7964 51.6079 62.2236 50.5611L61.0425 51.2073C61.7298 52.4633 62.6759 53.4376 63.8786 54.1111L64.5364 52.9364ZM62.2307 50.5743C61.6817 49.5155 61.3938 48.2359 61.3938 46.713H60.0475C60.0475 48.4054 60.3679 49.9066 61.0355 51.194L62.2307 50.5743ZM61.3938 46.713V36.1221H60.0475V46.713H61.3938ZM60.7206 36.7952H65.2829V35.4489H60.7206V36.7952ZM64.6097 36.1221V46.0612H65.956V36.1221H64.6097ZM64.6097 46.0612C64.6097 47.6034 64.9963 48.8957 65.862 49.84L66.8545 48.9303C66.2863 48.3105 65.956 47.3867 65.956 46.0612H64.6097ZM65.8685 49.847C66.736 50.7671 67.9046 51.1989 69.2911 51.1989V49.8525C68.201 49.8525 67.4143 49.524 66.848 48.9234L65.8685 49.847ZM69.2911 51.1989C70.6954 51.1989 71.8765 50.7695 72.7464 49.847L71.7668 48.9234C71.2028 49.5216 70.4069 49.8525 69.2911 49.8525V51.1989ZM72.7528 49.84C73.6185 48.8957 74.0051 47.6034 74.0051 46.0612H72.6588C72.6588 47.3867 72.3285 48.3105 71.7603 48.9303L72.7528 49.84ZM74.0051 46.0612V36.1221H72.6588V46.0612H74.0051ZM73.3319 36.7952H77.9268V35.4489H73.3319V36.7952ZM82.7214 33.2218L82.2454 33.6978L82.2554 33.7077L82.2657 33.7172L82.7214 33.2218ZM82.7214 29.4091L83.1872 29.8951L83.1876 29.8947L82.7214 29.4091ZM86.7297 29.4091L86.2537 29.8851L86.2636 29.895L86.2739 29.9045L86.7297 29.4091ZM86.7297 33.2218L87.1955 33.7078L87.1959 33.7074L86.7297 33.2218ZM86.9904 36.1221H87.6636V35.4489H86.9904V36.1221ZM86.9904 54.1755V54.8487H87.6636V54.1755H86.9904ZM82.4282 54.1755H81.755V54.8487H82.4282V54.1755ZM82.4282 36.1221V35.4489H81.755V36.1221H82.4282ZM84.7419 33.2981C84.0905 33.2981 83.5845 33.1011 83.1772 32.7264L82.2657 33.7172C82.9446 34.3418 83.7856 34.6445 84.7419 34.6445V33.2981ZM83.1974 32.7458C82.8066 32.355 82.6125 31.8872 82.6125 31.2991H81.2662C81.2662 32.2318 81.5935 33.0458 82.2454 33.6978L83.1974 32.7458ZM82.6125 31.2991C82.6125 30.7114 82.806 30.2605 83.1872 29.8951L82.2557 28.9231C81.5941 29.557 81.2662 30.3661 81.2662 31.2991H82.6125ZM83.1876 29.8947C83.5964 29.5023 84.0989 29.3001 84.7419 29.3001V27.9538C83.7772 27.9538 82.9328 28.273 82.2553 28.9235L83.1876 29.8947ZM84.7419 29.3001C85.3849 29.3001 85.8705 29.5019 86.2537 29.8851L87.2057 28.9331C86.5461 28.2734 85.7065 27.9538 84.7419 27.9538V29.3001ZM86.2739 29.9045C86.6738 30.2724 86.8712 30.7206 86.8712 31.2991H88.2176C88.2176 30.357 87.8718 29.5451 87.1855 28.9137L86.2739 29.9045ZM86.8712 31.2991C86.8712 31.8783 86.6729 32.3432 86.2635 32.7362L87.1959 33.7074C87.8727 33.0577 88.2176 32.2408 88.2176 31.2991H86.8712ZM86.2639 32.7358C85.8825 33.1014 85.3935 33.2981 84.7419 33.2981V34.6445C85.6979 34.6445 86.5341 34.3416 87.1955 33.7078L86.2639 32.7358ZM86.3172 36.1221V54.1755H87.6636V36.1221H86.3172ZM86.9904 53.5023H82.4282V54.8487H86.9904V53.5023ZM83.1013 54.1755V36.1221H81.755V54.1755H83.1013ZM82.4282 36.7952H86.9904V35.4489H82.4282V36.7952ZM95.6691 50.428L95.1302 50.0246L94.3244 51.1011H95.6691V50.428ZM103.718 50.428H104.391V49.7548H103.718V50.428ZM103.718 54.1755V54.8487H104.391V54.1755H103.718ZM90.4877 54.1755H89.8145V54.8487H90.4877V54.1755ZM90.4877 50.4931L89.9472 50.0919L89.8145 50.2706V50.4931H90.4877ZM98.3738 39.8696L98.9144 40.2709L99.7119 39.1965H98.3738V39.8696ZM90.5203 39.8696H89.8471V40.5428H90.5203V39.8696ZM90.5203 36.1221V35.4489H89.8471V36.1221H90.5203ZM103.62 36.1221H104.294V35.4489H103.62V36.1221ZM103.62 39.8045L104.159 40.2078L104.294 40.0285V39.8045H103.62ZM95.6691 51.1011H103.718V49.7548H95.6691V51.1011ZM103.045 50.428V54.1755H104.391V50.428H103.045ZM103.718 53.5023H90.4877V54.8487H103.718V53.5023ZM91.1609 54.1755V50.4931H89.8145V54.1755H91.1609ZM91.0282 50.8944L98.9144 40.2709L97.8333 39.4684L89.9472 50.0919L91.0282 50.8944ZM98.3738 39.1965H90.5203V40.5428H98.3738V39.1965ZM91.1934 39.8696V36.1221H89.8471V39.8696H91.1934ZM90.5203 36.7952H103.62V35.4489H90.5203V36.7952ZM102.947 36.1221V39.8045H104.294V36.1221H102.947ZM103.081 39.4011L95.1302 50.0246L96.208 50.8313L104.159 40.2078L103.081 39.4011ZM130.495 31.4295H131.168V30.7563H130.495V31.4295ZM130.495 35.1119V35.785H131.168V35.1119H130.495ZM124.433 35.1119V34.4387H123.76V35.1119H124.433ZM124.433 54.1755V54.8487H125.107V54.1755H124.433ZM119.871 54.1755H119.198V54.8487H119.871V54.1755ZM119.871 35.1119H120.544V34.4387H119.871V35.1119ZM113.81 35.1119H113.137V35.785H113.81V35.1119ZM113.81 31.4295V30.7563H113.137V31.4295H113.81ZM129.821 31.4295V35.1119H131.168V31.4295H129.821ZM130.495 34.4387H124.433V35.785H130.495V34.4387ZM123.76 35.1119V54.1755H125.107V35.1119H123.76ZM124.433 53.5023H119.871V54.8487H124.433V53.5023ZM120.544 54.1755V35.1119H119.198V54.1755H120.544ZM119.871 34.4387H113.81V35.785H119.871V34.4387ZM114.483 35.1119V31.4295H113.137V35.1119H114.483ZM113.81 32.1027H130.495V30.7563H113.81V32.1027ZM134.117 33.2218L133.641 33.6978L133.651 33.7077L133.661 33.7172L134.117 33.2218ZM134.117 29.4091L134.582 29.8951L134.583 29.8947L134.117 29.4091ZM138.125 29.4091L137.649 29.8851L137.659 29.895L137.669 29.9045L138.125 29.4091ZM138.125 33.2218L138.591 33.7078L138.591 33.7074L138.125 33.2218ZM138.386 36.1221H139.059V35.4489H138.386V36.1221ZM138.386 54.1755V54.8487H139.059V54.1755H138.386ZM133.823 54.1755H133.15V54.8487H133.823V54.1755ZM133.823 36.1221V35.4489H133.15V36.1221H133.823ZM136.137 33.2981C135.486 33.2981 134.98 33.1011 134.572 32.7264L133.661 33.7172C134.34 34.3418 135.181 34.6445 136.137 34.6445V33.2981ZM134.593 32.7458C134.202 32.355 134.008 31.8872 134.008 31.2991H132.661C132.661 32.2318 132.989 33.0458 133.641 33.6978L134.593 32.7458ZM134.008 31.2991C134.008 30.7114 134.201 30.2605 134.582 29.8951L133.651 28.9231C132.989 29.557 132.661 30.3661 132.661 31.2991H134.008ZM134.583 29.8947C134.992 29.5023 135.494 29.3001 136.137 29.3001V27.9538C135.172 27.9538 134.328 28.273 133.65 28.9235L134.583 29.8947ZM136.137 29.3001C136.78 29.3001 137.266 29.5019 137.649 29.8851L138.601 28.9331C137.941 28.2734 137.102 27.9538 136.137 27.9538V29.3001ZM137.669 29.9045C138.069 30.2724 138.266 30.7206 138.266 31.2991H139.613C139.613 30.357 139.267 29.5451 138.581 28.9137L137.669 29.9045ZM138.266 31.2991C138.266 31.8783 138.068 32.3432 137.659 32.7362L138.591 33.7074C139.268 33.0577 139.613 32.2408 139.613 31.2991H138.266ZM137.659 32.7358C137.278 33.1014 136.789 33.2981 136.137 33.2981V34.6445C137.093 34.6445 137.929 34.3416 138.591 33.7078L137.659 32.7358ZM137.712 36.1221V54.1755H139.059V36.1221H137.712ZM138.386 53.5023H133.823V54.8487H138.386V53.5023ZM134.497 54.1755V36.1221H133.15V54.1755H134.497ZM133.823 36.7952H138.386V35.4489H133.823V36.7952ZM170.658 37.9144L170.178 38.3866L170.185 38.3942L170.658 37.9144ZM172.711 54.1755V54.8487H173.384V54.1755H172.711ZM168.148 54.1755H167.475V54.8487H168.148V54.1755ZM167.073 40.9776L166.583 41.4395L166.59 41.4464L167.073 40.9776ZM161.175 40.9776L160.692 40.5086L160.692 40.5088L161.175 40.9776ZM160.099 54.1755V54.8487H160.772V54.1755H160.099ZM155.537 54.1755H154.864V54.8487H155.537V54.1755ZM154.462 40.9776L153.972 41.4395L153.979 41.4464L154.462 40.9776ZM148.531 40.9776L148.048 40.5086L148.048 40.5088L148.531 40.9776ZM147.455 54.1755V54.8487H148.128V54.1755H147.455ZM142.893 54.1755H142.22V54.8487H142.893V54.1755ZM142.893 36.1221V35.4489H142.22V36.1221H142.893ZM147.455 36.1221H148.128V35.4489H147.455V36.1221ZM147.455 38.3054H146.782V40.2802L147.988 38.7166L147.455 38.3054ZM149.704 36.5131L149.42 35.9027L149.414 35.9054L149.704 36.5131ZM156.547 36.7738L156.223 37.364L156.232 37.3688L156.547 36.7738ZM159.122 39.3156L158.532 39.6396L159.114 40.7014L159.708 39.6457L159.122 39.3156ZM161.663 36.8064L161.336 36.2185L161.331 36.2212L161.663 36.8064ZM165.313 36.5345C167.379 36.5345 168.977 37.1665 170.178 38.3866L171.137 37.4422C169.644 35.9249 167.679 35.1882 165.313 35.1882V36.5345ZM170.185 38.3942C171.393 39.5829 172.037 41.281 172.037 43.5846H173.384C173.384 41.0218 172.659 38.9397 171.13 37.4346L170.185 38.3942ZM172.037 43.5846V54.1755H173.384V43.5846H172.037ZM172.711 53.5023H168.148V54.8487H172.711V53.5023ZM168.822 54.1755V44.2038H167.475V54.1755H168.822ZM168.822 44.2038C168.822 42.6828 168.434 41.4137 167.556 40.5088L166.59 41.4464C167.145 42.0188 167.475 42.9004 167.475 44.2038H168.822ZM167.563 40.5158C166.695 39.5957 165.527 39.1639 164.14 39.1639V40.5102C165.23 40.5102 166.017 40.8388 166.583 41.4394L167.563 40.5158ZM164.14 39.1639C162.753 39.1639 161.579 39.5957 160.692 40.5086L161.657 41.4467C162.248 40.8388 163.051 40.5102 164.14 40.5102V39.1639ZM160.692 40.5088C159.813 41.4137 159.426 42.6828 159.426 44.2038H160.772C160.772 42.9004 161.102 42.0188 161.658 41.4464L160.692 40.5088ZM159.426 44.2038V54.1755H160.772V44.2038H159.426ZM160.099 53.5023H155.537V54.8487H160.099V53.5023ZM156.21 54.1755V44.2038H154.864V54.1755H156.21ZM156.21 44.2038C156.21 42.6828 155.823 41.4137 154.945 40.5088L153.979 41.4464C154.534 42.0188 154.864 42.9004 154.864 44.2038H156.21ZM154.951 40.5158C154.084 39.5957 152.915 39.1639 151.529 39.1639V40.5102C152.619 40.5102 153.406 40.8388 153.972 41.4394L154.951 40.5158ZM151.529 39.1639C150.124 39.1639 148.937 39.5933 148.048 40.5086L149.014 41.4467C149.602 40.8411 150.414 40.5102 151.529 40.5102V39.1639ZM148.048 40.5088C147.169 41.4137 146.782 42.6828 146.782 44.2038H148.128C148.128 42.9004 148.458 42.0188 149.014 41.4464L148.048 40.5088ZM146.782 44.2038V54.1755H148.128V44.2038H146.782ZM147.455 53.5023H142.893V54.8487H147.455V53.5023ZM143.566 54.1755V36.1221H142.22V54.1755H143.566ZM142.893 36.7952H147.455V35.4489H142.893V36.7952ZM146.782 36.1221V38.3054H148.128V36.1221H146.782ZM147.988 38.7166C148.507 38.0444 149.171 37.5124 149.993 37.1209L149.414 35.9054C148.412 36.3829 147.577 37.0457 146.922 37.8943L147.988 38.7166ZM149.988 37.1235C150.826 36.7334 151.75 36.5345 152.767 36.5345V35.1882C151.569 35.1882 150.45 35.4238 149.42 35.9028L149.988 37.1235ZM152.767 36.5345C154.079 36.5345 155.226 36.8163 156.223 37.3639L156.871 36.1837C155.653 35.5148 154.279 35.1882 152.767 35.1882V36.5345ZM156.232 37.3688C157.223 37.8933 157.986 38.6459 158.532 39.6396L159.712 38.9917C159.041 37.7695 158.087 36.8275 156.862 36.1789L156.232 37.3688ZM159.708 39.6457C160.231 38.7164 160.987 37.9653 161.996 37.3916L161.331 36.2212C160.124 36.9076 159.185 37.8293 158.535 38.9856L159.708 39.6457ZM161.991 37.3943C163.02 36.8207 164.124 36.5345 165.313 36.5345V35.1882C163.896 35.1882 162.566 35.5321 161.336 36.2185L161.991 37.3943ZM193.692 46.5175V47.1906H194.262L194.356 46.6281L193.692 46.5175ZM180.494 46.5175V45.8443H179.763L179.823 46.5734L180.494 46.5175ZM181.863 49.5807L181.407 50.0764L181.863 49.5807ZM188.445 48.5053V47.8321H188.027L187.842 48.2079L188.445 48.5053ZM193.366 48.5053L194.011 48.6987L194.271 47.8321H193.366V48.5053ZM190.368 52.8068L190.772 53.3454L190.777 53.3416L190.368 52.8068ZM180.233 53.3282L179.899 53.9128L179.91 53.9188L180.233 53.3282ZM177.007 50.0369L176.415 50.3561L176.418 50.3631L177.007 50.0369ZM177.007 40.2281L176.415 39.9089L177.007 40.2281ZM180.201 36.9694L180.528 37.5578L180.201 36.9694ZM189.521 36.9368L189.197 37.527L189.201 37.5292L189.521 36.9368ZM192.682 40.0977L192.089 40.4175L192.096 40.4287L192.682 40.0977ZM189.097 43.4542V44.1274H189.783L189.77 43.4418L189.097 43.4542ZM187.826 40.6517L187.385 41.1601L187.393 41.1666L187.826 40.6517ZM181.928 40.6191L182.374 41.1231L182.375 41.1223L181.928 40.6191ZM180.527 43.4542L179.86 43.359L179.751 44.1274H180.527V43.4542ZM193.149 44.7577C193.149 45.3806 193.108 45.9292 193.028 46.4068L194.356 46.6281C194.45 46.0629 194.496 45.4384 194.496 44.7577H193.149ZM193.692 45.8443H180.494V47.1906H193.692V45.8443ZM179.823 46.5734C179.943 48.01 180.455 49.2014 181.407 50.0764L182.318 49.085C181.663 48.4826 181.262 47.6319 181.165 46.4616L179.823 46.5734ZM181.407 50.0764C182.345 50.9381 183.5 51.3618 184.828 51.3618V50.0155C183.81 50.0155 182.988 49.7005 182.318 49.085L181.407 50.0764ZM184.828 51.3618C185.773 51.3618 186.624 51.1582 187.351 50.7191C188.08 50.279 188.643 49.6281 189.049 48.8027L187.842 48.2079C187.531 48.8381 187.132 49.2788 186.656 49.5665C186.177 49.8552 185.578 50.0155 184.828 50.0155V51.3618ZM188.445 49.1785H193.366V47.8321H188.445V49.1785ZM192.721 48.3119C192.242 49.9105 191.327 51.2262 189.959 52.2721L190.777 53.3416C192.364 52.1281 193.448 50.5761 194.011 48.6987L192.721 48.3119ZM189.964 52.2683C188.622 53.275 186.956 53.7956 184.926 53.7956V55.142C187.198 55.142 189.16 54.5546 190.772 53.3454L189.964 52.2683ZM184.926 53.7956C183.29 53.7956 181.838 53.4387 180.556 52.7376L179.91 53.9188C181.409 54.7385 183.086 55.142 184.926 55.142V53.7956ZM180.567 52.7438C179.308 52.0243 178.32 51.0178 177.596 49.7108L176.418 50.3631C177.259 51.8803 178.421 53.0679 179.899 53.9127L180.567 52.7438ZM177.6 49.7178C176.9 48.4177 176.54 46.901 176.54 45.1488H175.194C175.194 47.0898 175.594 48.8319 176.415 50.3561L177.6 49.7178ZM176.54 45.1488C176.54 43.3734 176.901 41.8462 177.6 40.5472L176.415 39.9089C175.593 41.4342 175.194 43.1875 175.194 45.1488H176.54ZM177.6 40.5472C178.301 39.2455 179.274 38.2541 180.528 37.5578L179.874 36.3809C178.39 37.2054 177.234 38.3864 176.415 39.9089L177.6 40.5472ZM180.528 37.5578C181.783 36.8603 183.243 36.502 184.926 36.502V35.1556C183.046 35.1556 181.356 35.5577 179.874 36.3809L180.528 37.5578ZM184.926 36.502C186.543 36.502 187.961 36.8489 189.197 37.527L189.845 36.3465C188.387 35.5473 186.742 35.1556 184.926 35.1556V36.502ZM189.201 37.5292C190.454 38.2055 191.413 39.1643 192.089 40.4175L193.274 39.778C192.473 38.2938 191.325 37.1454 189.841 36.3444L189.201 37.5292ZM192.096 40.4287C192.792 41.6614 193.149 43.0978 193.149 44.7577H194.496C194.496 42.8983 194.093 41.228 193.268 39.7668L192.096 40.4287ZM189.77 43.4418C189.745 42.0935 189.248 40.9689 188.26 40.1368L187.393 41.1666C188.056 41.725 188.406 42.4687 188.424 43.4667L189.77 43.4418ZM188.268 40.1435C187.308 39.31 186.136 38.9032 184.796 38.9032V40.2495C185.845 40.2495 186.694 40.5596 187.385 41.16L188.268 40.1435ZM184.796 38.9032C183.515 38.9032 182.396 39.3022 181.481 40.116L182.375 41.1223C183.024 40.5457 183.817 40.2495 184.796 40.2495V38.9032ZM181.482 40.1152C180.578 40.9156 180.052 42.019 179.86 43.359L181.193 43.5494C181.349 42.4563 181.757 41.6696 182.374 41.1231L181.482 40.1152ZM180.527 44.1274H189.097V42.7811H180.527V44.1274Z" fill="white" mask="url(#path-8-outside-1_4_16)"/>
</svg>
