<svg width="358" height="39" viewBox="0 0 358 39" fill="none" xmlns="http://www.w3.org/2000/svg">
<path d="M14.43 38.371C11.8507 38.371 9.51867 37.9293 7.434 37.046C5.38467 36.1627 3.75933 34.8907 2.558 33.23C1.35667 31.5693 0.738333 29.6083 0.703 27.347H8.653C8.759 28.8663 9.289 30.0677 10.243 30.951C11.2323 31.8343 12.575 32.276 14.271 32.276C16.0023 32.276 17.3627 31.8697 18.352 31.057C19.3413 30.209 19.836 29.1137 19.836 27.771C19.836 26.6757 19.5003 25.7747 18.829 25.068C18.1577 24.3613 17.3097 23.8137 16.285 23.425C15.2957 23.001 13.9177 22.5417 12.151 22.047C9.74833 21.3403 7.78733 20.6513 6.268 19.98C4.784 19.2733 3.49433 18.231 2.399 16.853C1.339 15.4397 0.809 13.567 0.809 11.235C0.809 9.04433 1.35667 7.13633 2.452 5.511C3.54733 3.88566 5.08433 2.649 7.063 1.801C9.04167 0.917666 11.303 0.476 13.847 0.476C17.663 0.476 20.7547 1.41233 23.122 3.285C25.5247 5.12233 26.8497 7.70167 27.097 11.023H18.935C18.8643 9.751 18.3167 8.70867 17.292 7.896C16.3027 7.048 14.9777 6.624 13.317 6.624C11.8683 6.624 10.7023 6.995 9.819 7.737C8.971 8.479 8.547 9.55667 8.547 10.97C8.547 11.9593 8.865 12.7897 9.501 13.461C10.1723 14.097 10.985 14.627 11.939 15.051C12.9283 15.4397 14.3063 15.899 16.073 16.429C18.4757 17.1357 20.4367 17.8423 21.956 18.549C23.4753 19.2557 24.7827 20.3157 25.878 21.729C26.9733 23.1423 27.521 24.9973 27.521 27.294C27.521 29.2727 27.0087 31.11 25.984 32.806C24.9593 34.502 23.4577 35.8623 21.479 36.887C19.5003 37.8763 17.1507 38.371 14.43 38.371ZM42.5929 14.733V28.937C42.5929 29.9263 42.8225 30.6507 43.2819 31.11C43.7765 31.534 44.5892 31.746 45.7199 31.746H49.1649V38H44.5009C38.2469 38 35.1199 34.9613 35.1199 28.884V14.733H31.6219V8.638H35.1199V1.377H42.5929V8.638H49.1649V14.733H42.5929ZM52.5937 23.213C52.5937 20.245 53.1767 17.6127 54.3427 15.316C55.5441 13.0193 57.1517 11.2527 59.1657 10.016C61.2151 8.77933 63.4941 8.161 66.0027 8.161C68.1934 8.161 70.1014 8.60267 71.7267 9.486C73.3874 10.3693 74.7124 11.4823 75.7017 12.825V8.638H83.1747V38H75.7017V33.707C74.7477 35.085 73.4227 36.2333 71.7267 37.152C70.0661 38.0353 68.1404 38.477 65.9497 38.477C63.4764 38.477 61.2151 37.841 59.1657 36.569C57.1517 35.297 55.5441 33.5127 54.3427 31.216C53.1767 28.884 52.5937 26.2163 52.5937 23.213ZM75.7017 23.319C75.7017 21.517 75.3484 19.98 74.6417 18.708C73.9351 17.4007 72.9811 16.4113 71.7797 15.74C70.5784 15.0333 69.2887 14.68 67.9107 14.68C66.5327 14.68 65.2607 15.0157 64.0947 15.687C62.9287 16.3583 61.9747 17.3477 61.2327 18.655C60.5261 19.927 60.1727 21.4463 60.1727 23.213C60.1727 24.9797 60.5261 26.5343 61.2327 27.877C61.9747 29.1843 62.9287 30.1913 64.0947 30.898C65.2961 31.6047 66.5681 31.958 67.9107 31.958C69.2887 31.958 70.5784 31.6223 71.7797 30.951C72.9811 30.2443 73.9351 29.255 74.6417 27.983C75.3484 26.6757 75.7017 25.121 75.7017 23.319ZM97.8416 13.196C98.7956 11.6413 100.032 10.4223 101.552 9.539C103.106 8.65567 104.873 8.214 106.852 8.214V16.005H104.891C102.559 16.005 100.792 16.5527 99.5906 17.648C98.4246 18.7433 97.8416 20.6513 97.8416 23.372V38H90.4216V8.638H97.8416V13.196ZM120.488 14.733V28.937C120.488 29.9263 120.718 30.6507 121.177 31.11C121.672 31.534 122.485 31.746 123.615 31.746H127.06V38H122.396C116.142 38 113.015 34.9613 113.015 28.884V14.733H109.517V8.638H113.015V1.377H120.488V8.638H127.06V14.733H120.488ZM176.667 38H169.247L152.446 12.613V38H145.026V0.952997H152.446L169.247 26.393V0.952997H176.667V38ZM197.038 38.477C194.211 38.477 191.667 37.8587 189.406 36.622C187.144 35.35 185.36 33.5657 184.053 31.269C182.781 28.9723 182.145 26.3223 182.145 23.319C182.145 20.3157 182.798 17.6657 184.106 15.369C185.448 13.0723 187.268 11.3057 189.565 10.069C191.861 8.797 194.423 8.161 197.25 8.161C200.076 8.161 202.638 8.797 204.935 10.069C207.231 11.3057 209.033 13.0723 210.341 15.369C211.683 17.6657 212.355 20.3157 212.355 23.319C212.355 26.3223 211.666 28.9723 210.288 31.269C208.945 33.5657 207.108 35.35 204.776 36.622C202.479 37.8587 199.9 38.477 197.038 38.477ZM197.038 32.011C198.38 32.011 199.635 31.693 200.801 31.057C202.002 30.3857 202.956 29.3963 203.663 28.089C204.369 26.7817 204.723 25.1917 204.723 23.319C204.723 20.5277 203.981 18.39 202.497 16.906C201.048 15.3867 199.264 14.627 197.144 14.627C195.024 14.627 193.239 15.3867 191.791 16.906C190.377 18.39 189.671 20.5277 189.671 23.319C189.671 26.1103 190.36 28.2657 191.738 29.785C193.151 31.269 194.918 32.011 197.038 32.011ZM258.502 8.638L249.916 38H241.913L236.56 17.489L231.207 38H223.151L214.512 8.638H222.038L227.232 31.004L232.85 8.638H240.694L246.206 30.951L251.4 8.638H258.502ZM276.205 7.26H285.586L297.14 19.132L285.586 31.004H276.205L287.812 19.132L276.205 7.26ZM306.277 7.26H315.658L327.212 19.132L315.658 31.004H306.277L317.884 19.132L306.277 7.26ZM336.348 7.26H345.729L357.283 19.132L345.729 31.004H336.348L347.955 19.132L336.348 7.26Z" fill="white"/>
</svg>
